Coordinates
version=1
nRows=13
nColumns=38
inDegrees=no

Units are S.I. units (second, meters, Newtons, ...)
If the header above contains a line with 'inDegrees', this indicates whether rotational values are in degrees (yes) or radians (no).

endheader
time	pelvis_tilt	pelvis_list	pelvis_rotation	pelvis_tx	pelvis_ty	pelvis_tz	hip_flexion_r	hip_adduction_r	hip_rotation_r	knee_angle_r	ankle_angle_r	subtalar_angle_r	mtp_angle_r	hip_flexion_l	hip_adduction_l	hip_rotation_l	knee_angle_l	ankle_angle_l	subtalar_angle_l	mtp_angle_l	lumbar_extension	lumbar_bending	lumbar_rotation	arm_flex_r	arm_add_r	arm_rot_r	elbow_flex_r	pro_sup_r	wrist_flex_r	wrist_dev_r	arm_flex_l	arm_add_l	arm_rot_l	elbow_flex_l	pro_sup_l	wrist_flex_l	wrist_dev_l
0	0.356698	1.21344	-1.84108	0.415722	1.90054	0.941059	-0.371564	-0.149067	-0.301591	0	-0.319985	0	0	0.306517	0.0600584	-0.288179	1.45698	-0.0627075	0	0	-0.411189	0.00707312	0.315011	-0.317526	-0.658705	-0.245271	1.64868	0.708509	0	0	0.445435	-0.252973	0.397557	0.905151	0.875921	0	0
0.01	0.507742	1.219	-1.92664	0.424039	1.9017	0.936125	-0.196544	-0.314006	-0.607019	0.590164	-0.0769391	0	0	0.335395	0.373428	0.179231	1.39499	0.0375243	0	0	-0.417102	-0.0392112	0.202211	-0.236329	-0.675224	-0.179114	1.62687	0.700855	0	0	0.56959	-0.504178	0.836587	1.06059	0.640499	0	0
0.02	0.403975	1.21993	-1.8969	0.415376	1.88511	0.938984	-0.241795	-0.240418	-0.497761	0.435295	-0.12266	0	0	0.3551	0.0731527	-0.317825	1.39526	-0.100725	0	0	-0.399256	-0.0115033	0.317755	-0.305335	-0.659229	-0.238588	1.63989	0.714472	0	0	0.464453	-0.281923	0.464161	0.903032	0.903361	0	0
0.03	0.359875	1.20916	-1.84944	0.414498	1.87771	0.94096	-0.343818	-0.169318	-0.377185	0.235043	-0.159961	0	0	0.349716	0.0534868	-0.326434	1.3607	-0.11383	0	0	-0.41923	0.000884675	0.316206	-0.298784	-0.659824	-0.238689	1.63934	0.715833	0	0	0.469004	-0.281095	0.464289	0.902167	0.897767	0	0
0.04	0.495587	1.21772	-1.91005	0.422762	1.87778	0.936062	-0.266389	-0.263123	-0.571355	0.475212	-0.0594665	0	0	0.372388	0.349547	0.150037	1.28221	0.00420114	0	0	-0.425485	-0.0366441	0.197892	-0.223984	-0.667879	-0.179629	1.62193	0.712545	0	0	0.574212	-0.505121	0.834449	1.05972	0.649918	0	0
0.05	0.500587	1.23809	-1.99526	0.41526	1.85952	0.934402	-0.200209	-0.279812	-0.497079	0.562632	-0.0235921	0	0	0.41895	0.0896022	-0.362051	1.28438	-0.130127	0	0	-0.368642	-0.0400386	0.316292	-0.300702	-0.645769	-0.240068	1.63451	0.728099	0	0	0.464402	-0.287351	0.46785	0.903769	0.903323	0	0
0.06	0.416385	1.21687	-1.89936	0.41523	1.85258	0.938312	-0.332431	-0.18822	-0.429798	0.293955	-0.115123	0	0	0.38631	0.0661805	-0.362338	1.23743	-0.143961	0	0	-0.407386	-0.0161663	0.309466	-0.296924	-0.649548	-0.244342	1.63755	0.724471	0	0	0.466694	-0.270043	0.440643	0.897924	0.896955	0	0
0.07	0.491923	1.21552	-1.89601	0.422422	1.85366	0.935133	-0.331103	-0.218744	-0.534025	0.375205	-0.0753471	0	0	0.378893	0.330355	0.13984	1.13588	-0.0329785	0	0	-0.436159	-0.0374211	0.185736	-0.212244	-0.660484	-0.178074	1.61944	0.719019	0	0	0.580316	-0.515365	0.835842	1.07005	0.655894	0	0
0.08	0.439313	1.22437	-1.92059	0.415318	1.83544	0.93608	-0.340957	-0.199715	-0.441978	0.325673	-0.0808261	0	0	0.394864	0.0623378	-0.393692	1.13656	-0.16759	0	0	-0.399034	-0.0234446	0.307133	-0.295112	-0.643336	-0.245421	1.63697	0.7292	0	0	0.424381	-0.182894	0.225153	0.891465	1.05029	0	0
0.09	0.525732	1.25248	-1.932	0.42383	1.83466	0.932162	-0.305108	-0.213361	-0.521866	0.383086	-0.049866	0	0	0.404269	0.320369	0.152819	1.01136	-0.0510276	0	0	-0.378506	-0.0160549	0.231923	-0.276697	-0.644229	-0.24096	1.63503	0.733673	0	0	0.483614	-0.286449	0.46175	0.904983	0.906029	0	0
0.1	0.52975	1.25679	-1.9313	0.424418	1.82607	0.930905	-0.311333	-0.208622	-0.526322	0.383595	-0.0501912	0	0	0.395012	0.318368	0.17131	0.943807	-0.0538253	0	0	-0.374351	-0.0153113	0.227921	-0.276556	-0.64311	-0.240248	1.63481	0.732836	0	0	0.484281	-0.287062	0.46162	0.904822	0.907631	0	0
0.11	0.532651	1.26153	-1.92905	0.425113	1.81738	0.929419	-0.316137	-0.204532	-0.532971	0.38895	-0.0416778	0	0	0.383424	0.315515	0.192188	0.874036	-0.0604929	0	0	-0.369571	-0.0140135	0.223343	-0.276442	-0.641692	-0.239506	1.63468	0.731989	0	0	0.484642	-0.288829	0.462762	0.905852	0.905786	0	0
0.12	0.529526	1.25628	-2.00918	0.417874	1.80001	0.927874	-0.312398	-0.242291	-0.377658	0.526787	0.0905754	0	0	0.395397	0.0745821	-0.445211	0.879594	-0.200341	0	0	-0.353817	-0.0428448	0.30264	-0.295034	-0.636198	-0.23967	1.63261	0.73391	0	0	0.469792	-0.291813	0.469553	0.903532	0.901957	0	0
